# xmcd
# 
# Track frame offsets:
#     182
#     10695
#     22302
#     36620
#     52297
#     66642
#     81277
#     95290
#     114875
#     126857
#     139427
#     155745
#     169095
# 
# Disc length: 2486
# 
# Revision: 8
# Processed by: cddbd v1.5.2PL0 Copyright (c) Steve Scherf et al.
# Submitted via: fre:ac v1.0.31
# 
DISCID=c109b40d
DTITLE=The Kentucky Headhunters - Electric Barnyard
DYEAR=1991
DGENRE=Country
TTITLE0=It`s Chitlin` Time
TTITLE1=The Ballad Of Davy Crockett
TTITLE2=Only Daddy That`ll Walk The Line
TTITLE3=With Body And Soul
TTITLE4=Diane
TTITLE5=16 And Single
TTITLE6=Wishin' Well
TTITLE7=Spirit In The Sky
TTITLE8=Always Makin' Love
TTITLE9=Love Bug Crawl
TTITLE10=Big Mexican Dinner
TTITLE11=Kickin' Them Blues Around
TTITLE12=Take Me Back
EXTD=YEAR: 1991
EXTT0=
EXTT1=
EXTT2=
EXTT3=
EXTT4=
EXTT5=
EXTT6=
EXTT7=
EXTT8=
EXTT9=
EXTT10=
EXTT11=
EXTT12=
PLAYORDER=
